<svg xmlns="http://www.w3.org/2000/svg" viewBox="0 0 514.9 67.7" width="514.9" height="67.7" role="img" aria-label="inlineOverhaul"><style>@keyframes io-caret-blink{0%,45%{opacity:1}55%,100%{opacity:0}}.io-caret{animation:io-caret-blink 1.6s steps(1,end) infinite}@media(prefers-reduced-motion:reduce){.io-caret{animation:none}}</style><title>inlineOverhaul</title><g transform="translate(17.27 46.70)"><rect x="-5.27" y="-34.70" width="91.20" height="43.75" rx="21.87" fill="#ffb547"/><path d="M23.67 -17.34C23.67 -18.48 23.10 -19.54 20.77 -19.54H19.67L20.24 -27.59C20.24 -28.60 19.23 -29.70 18.04 -29.70C16.94 -29.70 15.88 -29.26 15.80 -26.93L15.27 -19.54H12.14L12.67 -27.41C12.67 -28.64 11.75 -29.70 10.47 -29.70C9.33 -29.70 8.32 -29.13 8.23 -26.93L7.70 -19.54H6.56C4.18 -19.54 3.61 -18.57 3.61 -17.34C3.61 -16.19 4.14 -15.14 6.56 -15.14H7.39L7.08 -10.47H5.63C3.30 -10.47 2.73 -9.46 2.73 -8.32C2.73 -7.13 3.34 -6.12 5.63 -6.12H6.78L6.29 0.97C6.25 1.28 6.25 1.58 6.25 1.76C6.25 3.08 7.17 4.05 8.45 4.05C9.90 4.05 10.65 3.08 10.65 1.28L11.18 -6.12H14.34L13.77 1.80C13.77 2.95 14.65 4.05 15.93 4.05C17.03 4.05 18.08 3.39 18.22 1.28L18.70 -6.12H19.89C22.13 -6.12 22.79 -7.04 22.79 -8.27C22.79 -9.42 22.26 -10.47 19.84 -10.47H19.01L19.36 -15.14H20.77C23.01 -15.14 23.67 -16.10 23.67 -17.34ZM14.96 -15.14 14.65 -10.47H11.48L11.84 -15.14Z" fill="#3a2400"/><path d="M50.07 -2.20C50.07 -3.34 49.50 -4.40 47.17 -4.40H41.80V-19.23H33.97C31.59 -19.23 31.02 -18.26 31.02 -17.03C31.02 -15.84 31.68 -14.83 33.97 -14.83H37.40V-4.40H32.03C29.70 -4.40 29.13 -3.43 29.13 -2.20C29.13 -1.01 29.79 0.00 32.03 0.00H47.17C49.41 0.00 50.07 -1.01 50.07 -2.20ZM42.24 -25.48C42.24 -26.97 41.10 -28.16 39.60 -28.16C38.15 -28.16 36.96 -26.97 36.96 -25.52C36.96 -24.07 38.15 -22.88 39.60 -22.88C41.05 -22.88 42.24 -24.07 42.24 -25.48Z" fill="#3a2400"/><path d="M77.92 -2.20C77.92 -3.61 76.96 -4.40 75.24 -4.40V-12.41C75.24 -17.07 71.85 -19.80 67.41 -19.80C64.99 -19.80 63.49 -19.14 61.38 -17.12V-19.23H57.24C55.44 -19.23 54.30 -18.52 54.30 -17.03C54.30 -15.62 55.26 -14.87 56.98 -14.83V-4.40H56.72C54.43 -4.40 53.81 -3.43 53.81 -2.20C53.81 -0.97 54.52 0.00 56.72 0.00H61.64C63.89 0.00 64.55 -0.97 64.55 -2.20C64.55 -3.34 63.98 -4.40 61.64 -4.40H61.38V-12.41C63.45 -14.65 64.86 -15.40 66.88 -15.40C69.61 -15.40 70.84 -14.39 70.84 -12.23V-4.40C69.12 -4.40 68.16 -3.61 68.16 -2.20C68.16 -0.75 69.12 0.00 71.10 0.00H75.02C77.26 0.00 77.92 -0.92 77.92 -2.20Z" fill="#3a2400"/><path d="M113.87 -2.20C113.87 -3.34 113.30 -4.40 110.97 -4.40H105.60V-27.46H97.77C95.44 -27.46 94.82 -26.53 94.82 -25.26C94.82 -24.11 95.39 -23.06 97.77 -23.06H101.20V-4.40H95.83C93.50 -4.40 92.93 -3.43 92.93 -2.20C92.93 -1.06 93.54 0.00 95.83 0.00H110.97C113.21 0.00 113.87 -1.01 113.87 -2.20Z" fill="#111111"/><path d="M140.27 -2.20C140.27 -3.34 139.70 -4.40 137.37 -4.40H132.00V-19.23H124.17C121.79 -19.23 121.22 -18.26 121.22 -17.03C121.22 -15.84 121.88 -14.83 124.17 -14.83H127.60V-4.40H122.23C119.90 -4.40 119.33 -3.43 119.33 -2.20C119.33 -1.01 119.99 0.00 122.23 0.00H137.37C139.61 0.00 140.27 -1.01 140.27 -2.20ZM132.44 -25.48C132.44 -26.97 131.30 -28.16 129.80 -28.16C128.35 -28.16 127.16 -26.97 127.16 -25.52C127.16 -24.07 128.35 -22.88 129.80 -22.88C131.25 -22.88 132.44 -24.07 132.44 -25.48Z" fill="#111111"/><path d="M168.12 -2.20C168.12 -3.61 167.16 -4.40 165.44 -4.40V-12.41C165.44 -17.07 162.05 -19.80 157.61 -19.80C155.19 -19.80 153.69 -19.14 151.58 -17.12V-19.23H147.44C145.64 -19.23 144.50 -18.52 144.50 -17.03C144.50 -15.62 145.46 -14.87 147.18 -14.83V-4.40H146.92C144.63 -4.40 144.01 -3.43 144.01 -2.20C144.01 -0.97 144.72 0.00 146.92 0.00H151.84C154.09 0.00 154.75 -0.97 154.75 -2.20C154.75 -3.34 154.18 -4.40 151.84 -4.40H151.58V-12.41C153.65 -14.65 155.06 -15.40 157.08 -15.40C159.81 -15.40 161.04 -14.39 161.04 -12.23V-4.40C159.32 -4.40 158.36 -3.61 158.36 -2.20C158.36 -0.75 159.32 0.00 161.30 0.00H165.22C167.46 0.00 168.12 -0.92 168.12 -2.20Z" fill="#111111"/><path d="M193.60 -2.95C193.60 -4.18 192.68 -5.15 191.49 -5.15C191.09 -5.15 190.56 -5.06 190.04 -4.93C185.99 -3.87 184.89 -3.70 182.86 -3.70C178.99 -3.70 176.66 -4.93 175.65 -7.57H193.60V-9.28C193.60 -15.36 188.76 -19.80 182.20 -19.80C175.78 -19.80 170.85 -15.31 170.85 -9.50C170.85 -3.52 175.65 0.70 182.47 0.70C187.44 0.70 193.60 -0.53 193.60 -2.95ZM188.72 -11.44H175.78C176.44 -13.82 179.04 -15.40 182.25 -15.40C185.46 -15.40 188.01 -13.86 188.72 -11.44Z" fill="#111111"/><path d="M212.48 4.31C212.48 3.17 211.90 2.11 209.57 2.11H206.98V-23.19H209.53C211.77 -23.19 212.43 -24.16 212.43 -25.39C212.43 -26.58 211.90 -27.59 209.53 -27.59H202.58V6.51H209.57C211.86 6.51 212.48 5.50 212.48 4.31Z" fill="#aec4d2"/><path d="M230.43 4.31C230.43 3.17 229.86 2.11 227.52 2.11H224.93V-23.19H227.48C229.72 -23.19 230.38 -24.16 230.38 -25.39C230.38 -26.58 229.86 -27.59 227.48 -27.59H220.53V6.51H227.52C229.81 6.51 230.43 5.50 230.43 4.31Z" fill="#aec4d2"/><path d="M257.18 -12.63C257.18 -20.28 251.59 -26.27 244.90 -26.27C238.13 -26.27 232.63 -20.24 232.63 -12.85C232.63 -5.41 238.13 0.62 244.90 0.62C251.59 0.62 257.18 -5.41 257.18 -12.63ZM252.78 -12.72C252.78 -7.88 249.17 -3.78 244.90 -3.78C240.59 -3.78 237.03 -7.88 237.03 -12.85C237.03 -17.78 240.59 -21.87 244.90 -21.87C249.26 -21.87 252.78 -17.78 252.78 -12.72Z" fill="#4a7b9b"/><path d="M284.50 -17.03C284.50 -18.22 283.93 -19.23 281.60 -19.23H275.66C273.37 -19.23 272.76 -18.26 272.76 -17.03C272.76 -15.88 273.33 -14.83 275.66 -14.83H276.10L271.39 -5.37L266.60 -14.83H267.12C269.41 -14.83 269.72 -15.80 269.72 -17.03C269.72 -18.22 269.15 -19.23 266.82 -19.23H261.01C258.72 -19.23 258.10 -18.26 258.10 -17.03C258.10 -15.88 258.68 -14.83 261.01 -14.83H261.62L268.97 0.00H273.55L280.90 -14.83H281.60C283.89 -14.83 284.50 -15.80 284.50 -17.03Z" fill="#4a7b9b"/><path d="M308.70 -2.95C308.70 -4.18 307.78 -5.15 306.59 -5.15C306.20 -5.15 305.67 -5.06 305.14 -4.93C301.09 -3.87 299.99 -3.70 297.97 -3.70C294.10 -3.70 291.76 -4.93 290.75 -7.57H308.70V-9.28C308.70 -15.36 303.86 -19.80 297.31 -19.80C290.88 -19.80 285.96 -15.31 285.96 -9.50C285.96 -3.52 290.75 0.70 297.57 0.70C302.54 0.70 308.70 -0.53 308.70 -2.95ZM303.82 -11.44H290.88C291.54 -13.82 294.14 -15.40 297.35 -15.40C300.56 -15.40 303.12 -13.86 303.82 -11.44Z" fill="#4a7b9b"/><path d="M336.03 -16.02C336.03 -18.04 332.60 -19.76 330.48 -19.76C328.33 -19.76 326.66 -19.01 323.14 -16.37V-19.23H317.20C315.04 -19.23 314.29 -18.26 314.29 -17.03C314.29 -15.84 314.95 -14.83 317.20 -14.83H318.74V-4.40H316.18C313.85 -4.40 313.28 -3.43 313.28 -2.20C313.28 -1.01 313.94 0.00 316.18 0.00H329.25C331.58 0.00 332.20 -0.97 332.20 -2.20C332.20 -3.34 331.67 -4.40 329.25 -4.40H323.14V-10.87C327.32 -14.30 328.99 -15.36 330.40 -15.36C331.45 -15.36 332.73 -13.77 333.83 -13.77C335.02 -13.77 336.03 -14.78 336.03 -16.02Z" fill="#4a7b9b"/><path d="M362.87 -2.20C362.87 -3.39 362.34 -4.40 359.96 -4.40H359.70V-12.50C359.70 -16.90 356.58 -19.80 351.91 -19.80C349.62 -19.80 347.64 -18.92 345.88 -17.12V-27.46H340.78C338.49 -27.46 337.88 -26.49 337.88 -25.26C337.88 -24.07 338.40 -23.06 340.78 -23.06H341.48V-4.40H341.22C338.93 -4.40 338.32 -3.43 338.32 -2.20C338.32 -1.06 338.89 0.00 341.22 0.00H346.15C348.44 0.00 349.10 -0.97 349.10 -2.20C349.10 -3.34 348.57 -4.40 346.15 -4.40H345.88V-12.45C348.39 -14.87 349.36 -15.40 351.43 -15.40C353.85 -15.40 355.30 -14.65 355.30 -11.92V-4.40H355.04C352.66 -4.40 352.09 -3.39 352.09 -2.20C352.09 -1.01 352.66 0.00 355.04 0.00H359.96C362.21 0.00 362.87 -0.92 362.87 -2.20Z" fill="#4a7b9b"/><path d="M388.83 -2.20C388.83 -3.39 388.30 -4.40 385.92 -4.40H385.22V-13.29C385.22 -17.38 381.96 -19.80 376.55 -19.80C374.35 -19.80 371.10 -19.23 368.98 -18.48C368.10 -18.17 367.66 -17.56 367.66 -16.63C367.66 -15.36 368.59 -14.39 369.82 -14.39C370.22 -14.39 370.83 -14.48 371.58 -14.65C373.60 -15.18 375.23 -15.40 376.68 -15.40C379.50 -15.40 380.78 -14.74 380.78 -13.24V-12.23C378.97 -12.54 377.61 -12.67 376.20 -12.67C370.35 -12.67 365.55 -9.55 365.55 -5.24C365.55 -1.98 369.12 0.70 373.47 0.70C376.07 0.70 378.66 0.09 380.78 -1.01V0.00H385.92C388.21 0.00 388.83 -0.97 388.83 -2.20ZM380.82 -5.94C378.40 -4.44 375.94 -3.70 373.56 -3.70C371.67 -3.70 370.22 -4.44 370.22 -5.41C370.22 -7.08 372.94 -8.62 375.94 -8.62C377.43 -8.62 379.06 -8.45 380.82 -8.14Z" fill="#4a7b9b"/><path d="M415.23 -2.20C415.23 -3.61 414.26 -4.40 412.54 -4.40V-19.23H406.60C404.32 -19.23 403.70 -18.26 403.70 -17.03C403.70 -15.88 404.32 -14.83 406.60 -14.83H408.14V-6.82C405.86 -4.40 404.76 -3.83 402.56 -3.83C399.92 -3.83 398.68 -4.84 398.68 -7.00V-19.23H393.58C391.29 -19.23 390.68 -18.26 390.68 -17.03C390.68 -15.71 391.78 -14.78 393.10 -14.83H394.28V-6.86C394.28 -2.16 397.58 0.57 402.12 0.57C404.54 0.57 405.94 -0.04 408.14 -2.11V0.00H412.32C414.57 0.00 415.23 -0.97 415.23 -2.20Z" fill="#4a7b9b"/><path d="M440.18 -2.20C440.18 -3.34 439.60 -4.40 437.27 -4.40H431.90V-27.46H424.07C421.74 -27.46 421.12 -26.53 421.12 -25.26C421.12 -24.11 421.70 -23.06 424.07 -23.06H427.50V-4.40H422.14C419.80 -4.40 419.23 -3.43 419.23 -2.20C419.23 -1.06 419.85 0.00 422.14 0.00H437.27C439.52 0.00 440.18 -1.01 440.18 -2.20Z" fill="#4a7b9b"/><path d="M454.08 6.51V-27.59H447.08C444.80 -27.59 444.18 -26.58 444.18 -25.39C444.18 -24.24 444.71 -23.19 447.08 -23.19H449.68V2.11H447.13C444.84 2.11 444.22 3.08 444.22 4.31C444.22 5.50 444.75 6.51 447.13 6.51Z" fill="#aec4d2"/><path d="M472.03 6.51V-27.59H465.04C462.75 -27.59 462.13 -26.58 462.13 -25.39C462.13 -24.24 462.66 -23.19 465.04 -23.19H467.63V2.11H465.08C462.79 2.11 462.18 3.08 462.18 4.31C462.18 5.50 462.70 6.51 465.08 6.51Z" fill="#aec4d2"/><rect class="io-caret" x="480.78" y="-28.58" width="4.81" height="32.37" fill="#cb06c4"/></g></svg>